<?xml version="1.0" encoding="UTF-8" standalone="no"?>
<svg width="16px" height="16px" viewBox="0 0 16 16" version="1.1" xmlns="http://www.w3.org/2000/svg" xmlns:xlink="http://www.w3.org/1999/xlink">
    <!-- Generator: Sketch 40.3 (33839) - http://www.bohemiancoding.com/sketch -->
    <title>Icon_documents</title>
    <desc>Created with Sketch.</desc>
    <defs></defs>
    <g id="Page-1" stroke="none" stroke-width="1" fill="none" fill-rule="evenodd">
        <g id="Icon_documents" fill="#494949">
            <path d="M3,12 L3,10 L2.00104344,10 C2.00348859,10 2,2.0085302 2,2.0085302 C2,2.00516686 9.9914698,2 9.9914698,2 C9.99574844,2 10,3 10,3 L12,3 L12,2.00104344 C12,0.90009892 11.1007504,0 9.9914698,0 L2.0085302,0 C0.901950359,0 0,0.899249601 0,2.0085302 L0,9.9914698 C0,11.0980496 0.895897664,12 2.00104344,12 L3,12 Z" id="Combined-Shape"></path>
            <path d="M4,6.0085302 C4,4.8992496 4.90195036,4 6.0085302,4 L13.9914698,4 C15.1007504,4 16,4.90195036 16,6.0085302 L16,13.9914698 C16,15.1007504 15.0980496,16 13.9914698,16 L6.0085302,16 C4.8992496,16 4,15.0980496 4,13.9914698 L4,6.0085302 Z M13.9914698,6 C13.9948331,6 14,13.9914698 14,13.9914698 C14,13.9948331 6.0085302,14 6.0085302,14 C6.00516686,14 6,6.0085302 6,6.0085302 C6,6.00516686 13.9914698,6 13.9914698,6 Z" id="Combined-Shape"></path>
            <path d="M7.375,12.5 L12.625,12.5 C12.832,12.5 13,12.276 13,12 L13,11 C13,10.724 12.832,10.5 12.625,10.5 L7.375,10.5 C7.168,10.5 7,10.724 7,11 L7,12 C7,12.276 7.168,12.5 7.375,12.5 L7.375,12.5 Z" id="Combined-Shape-path"></path>
            <path d="M7.375,9.5 L12.625,9.5 C12.832,9.5 13,9.276 13,9 L13,8 C13,7.724 12.832,7.5 12.625,7.5 L7.375,7.5 C7.168,7.5 7,7.724 7,8 L7,9 C7,9.276 7.168,9.5 7.375,9.5 L7.375,9.5 Z" id="Combined-Shape-path"></path>
        </g>
    </g>
</svg>