<?xml version="1.0" encoding="UTF-8"?>
<svg width="16px" height="16px" viewBox="0 0 16 16" version="1.1" xmlns="http://www.w3.org/2000/svg" xmlns:xlink="http://www.w3.org/1999/xlink">
    <!-- Generator: sketchtool 41.2 (35397) - http://www.bohemiancoding.com/sketch -->
    <title>313EB3A6-8700-49A5-9BF3-51ACCDACE901</title>
    <desc>Created with sketchtool.</desc>
    <defs></defs>
    <g id="#744---Responsive-Global-header-+-in-part-up-menu" stroke="none" stroke-width="1" fill="none" fill-rule="evenodd">
        <g id="#744-1.1-iPhone-375px---menu" transform="translate(-12.000000, -82.000000)" fill="#494949">
            <g id="Subnav-tribes" transform="translate(0.000000, 60.000000)">
                <g id="Select" transform="translate(0.000000, 10.000000)">
                    <path d="M20,28 C24.418278,28 28,24.418278 28,20 C28,15.581722 24.418278,12 20,12 C15.581722,12 12,15.581722 12,20 C12,24.418278 15.581722,28 20,28 Z M20,26 C16.6862915,26 14,23.3137085 14,20 C14,16.6862915 16.6862915,14 20,14 C23.3137085,14 26,16.6862915 26,20 C26,23.3137085 23.3137085,26 20,26 Z M21,17.5 C21,17.776 20.776,18 20.5,18 L19.5,18 C19.224,18 19,17.776 19,17.5 L19,16.5 C19,16.224 19.224,16 19.5,16 L20.5,16 C20.776,16 21,16.224 21,16.5 L21,17.5 Z M21,23.6428571 C21,23.84 20.776,24 20.5,24 L19.5,24 C19.224,24 19,23.84 19,23.6428571 L19,19.3571429 C19,19.16 19.224,19 19.5,19 L20.5,19 C20.776,19 21,19.16 21,19.3571429 L21,23.6428571 Z" id="part-up-info"></path>
                </g>
            </g>
        </g>
    </g>
</svg>