<?xml version="1.0" encoding="utf-8"?>
<!-- Generator: Adobe Illustrator 16.0.0, SVG Export Plug-In . SVG Version: 6.00 Build 0)  -->
<!DOCTYPE svg PUBLIC "-//W3C//DTD SVG 1.1//EN" "http://www.w3.org/Graphics/SVG/1.1/DTD/svg11.dtd">
<svg version="1.1" id="Layer_1" xmlns="http://www.w3.org/2000/svg" xmlns:xlink="http://www.w3.org/1999/xlink" x="0px" y="0px"
	 width="200px" height="200px" viewBox="0 0 200 200" enable-background="new 0 0 200 200" xml:space="preserve">
<g>
	<rect y="53.327" fill-rule="evenodd" clip-rule="evenodd" width="40" height="146.673"/>
	<path fill-rule="evenodd" clip-rule="evenodd" d="M146.667,53.333c-24.752,0-34.389,13.333-40.457,26.667l0.457-26.667H67.083
		C67.708,66.667,66.667,200,66.667,200h40v-77.929c0-4.129,0.26-8.321,1.393-11.283c3.334-8.32,13.425-16.973,26.159-16.973
		c16.628,0,25.781,12.852,25.781,31.523V200h40v-80.026C200,77.253,176.771,53.333,146.667,53.333"/>
	<path fill-rule="evenodd" clip-rule="evenodd" d="M40,20c0,11.055-8.958,20-20,20C8.972,40,0,31.055,0,20S8.972,0,20,0
		C31.042,0,40,8.945,40,20"/>
</g>
</svg>
