<?xml version="1.0" encoding="utf-8"?>
<!-- Generator: Adobe Illustrator 16.0.0, SVG Export Plug-In . SVG Version: 6.00 Build 0)  -->
<!DOCTYPE svg PUBLIC "-//W3C//DTD SVG 1.1//EN" "http://www.w3.org/Graphics/SVG/1.1/DTD/svg11.dtd">
<svg version="1.1" id="Layer_1" xmlns="http://www.w3.org/2000/svg" xmlns:xlink="http://www.w3.org/1999/xlink" x="0px" y="0px"
	 width="200px" height="200px" viewBox="0 0 200 200" enable-background="new 0 0 200 200" xml:space="preserve">
<path d="M156.253,87.5h-43.756V43.75c0-3.454-2.796-6.25-6.25-6.25h-12.5c-3.448,0-6.25,2.796-6.25,6.25V87.5h-43.75
	c-3.448,0-6.25,2.796-6.25,6.25v12.5c0,3.454,2.801,6.25,6.25,6.25h43.75v43.75c0,3.454,2.801,6.25,6.25,6.25h12.5
	c3.454,0,6.25-2.796,6.25-6.25V112.5h43.756c3.442,0,6.25-2.796,6.25-6.25v-12.5C162.503,90.296,159.695,87.5,156.253,87.5"/>
</svg>
