<?xml version="1.0" encoding="utf-8"?>
<!-- Generator: Adobe Illustrator 16.0.0, SVG Export Plug-In . SVG Version: 6.00 Build 0)  -->
<!DOCTYPE svg PUBLIC "-//W3C//DTD SVG 1.1//EN" "http://www.w3.org/Graphics/SVG/1.1/DTD/svg11.dtd">
<svg version="1.1" id="Layer_1" xmlns="http://www.w3.org/2000/svg" xmlns:xlink="http://www.w3.org/1999/xlink" x="0px" y="0px"
	 width="200px" height="200px" viewBox="0 0 200 200" enable-background="new 0 0 200 200" xml:space="preserve">
<path d="M100,0C44.775,0,0,44.775,0,100s44.775,100,100,100s100-44.775,100-100S155.225,0,100,0 M112.549,172.168
	c-3.003,2.966-7.153,4.443-12.5,4.443c-5.469,0-9.692-1.452-12.695-4.346c-3.003-2.905-4.492-6.982-4.492-12.256
	c0-5.469,1.465-9.606,4.395-12.402s7.202-4.199,12.793-4.199c5.396,0,9.57,1.429,12.549,4.297c2.954,2.868,4.443,6.97,4.443,12.305
	C117.041,165.149,115.527,169.202,112.549,172.168 M144.775,83.154c-3.271,5.212-9.448,11.071-18.555,17.578
	c-6.25,4.626-10.205,8.142-11.865,10.547c-1.66,2.417-2.49,5.566-2.49,9.473v5.859H85.986v-7.227c0-6.25,1.318-11.683,4.004-16.309
	c2.661-4.626,7.544-9.534,14.648-14.746c6.836-4.883,11.328-8.851,13.525-11.914c2.173-3.063,3.271-6.47,3.271-10.254
	c0-4.235-1.562-7.458-4.688-9.668s-7.495-3.32-13.086-3.32c-9.766,0-20.898,3.198-33.398,9.57L59.619,41.357
	c14.526-8.142,29.907-12.207,46.191-12.207c13.403,0,24.072,3.223,31.982,9.668s11.865,15.039,11.865,25.781
	C149.658,71.765,148.022,77.942,144.775,83.154"/>
</svg>
