<?xml version="1.0" encoding="UTF-8" standalone="no"?>
<svg width="16px" height="16px" viewBox="0 0 16 16" version="1.1" xmlns="http://www.w3.org/2000/svg" xmlns:xlink="http://www.w3.org/1999/xlink">
    <!-- Generator: Sketch 40.3 (33839) - http://www.bohemiancoding.com/sketch -->
    <title>Icon_social share@1x</title>
    <desc>Created with Sketch.</desc>
    <defs></defs>
    <g id="Improvements" stroke="none" stroke-width="1" fill="none" fill-rule="evenodd">
        <g id="V1-1.-In-part-up-navigation---overview---breadcrumb" transform="translate(-834.000000, -82.000000)" fill="#494949">
            <g id="Subnav-part-up" transform="translate(0.000000, 60.000000)">
                <g id="Group-19" transform="translate(798.000000, 20.000000)">
                    <g id="Group-18" transform="translate(36.000000, 0.000000)">
                        <path d="M5.082723,12.1592321 L10.0227247,14.6289138 C10.0077246,14.7505057 10,14.8743508 10,15 C10,16.6568542 11.3431458,18 13,18 C14.6568542,18 16,16.6568542 16,15 C16,13.3431458 14.6568542,12 13,12 C12.1912523,12 11.4572498,12.3200226 10.917718,12.8403425 L5.97735028,10.3704777 C5.99230118,10.2490811 6,10.1254396 6,10 C6,9.87461837 5.9923083,9.75103324 5.97737102,9.62969071 L10.9180786,7.16000519 C11.4575768,7.68011994 12.1914324,8 13,8 C14.6568542,8 16,6.65685425 16,5 C16,3.34314575 14.6568542,2 13,2 C11.3431458,2 10,3.34314575 10,5 C10,5.12582048 10.0077456,5.24983186 10.0227861,5.37158334 L5.08284506,7.84088569 C4.54326094,7.32024536 3.80902912,7 3,7 C1.34314575,7 0,8.34314575 0,10 C0,11.6568542 1.34314575,13 3,13 C3.80896812,13 4.54315022,12.6798029 5.082723,12.1592321 Z" id="Icon_social-share"></path>
                    </g>
                </g>
            </g>
        </g>
    </g>
</svg>