<?xml version="1.0" encoding="utf-8"?>
<!-- Generator: Adobe Illustrator 16.0.0, SVG Export Plug-In . SVG Version: 6.00 Build 0)  -->
<!DOCTYPE svg PUBLIC "-//W3C//DTD SVG 1.1//EN" "http://www.w3.org/Graphics/SVG/1.1/DTD/svg11.dtd">
<svg version="1.1" id="Layer_1" xmlns="http://www.w3.org/2000/svg" xmlns:xlink="http://www.w3.org/1999/xlink" x="0px" y="0px"
	 width="200px" height="200px" viewBox="0 0 200 200" enable-background="new 0 0 200 200" xml:space="preserve">
<path d="M148.183,130.663L117.52,100l30.663-30.662c2.433-2.433,2.433-6.341,0-8.762l-8.761-8.761c-2.408-2.42-6.341-2.42-8.761,0
	L99.998,82.479l-30.65-30.663c-2.433-2.42-6.354-2.42-8.762,0l-8.761,8.761c-2.444,2.421-2.444,6.329,0,8.762L82.477,100
	l-30.651,30.663c-2.444,2.42-2.444,6.341,0,8.761l8.761,8.761c2.408,2.421,6.329,2.421,8.762,0l30.65-30.663l30.663,30.663
	c2.42,2.421,6.353,2.421,8.761,0l8.761-8.761C150.615,137.004,150.615,133.083,148.183,130.663"/>
</svg>
