<?xml version="1.0" encoding="UTF-8" standalone="no"?>
<svg width="202px" height="201px" viewBox="0 0 202 201" version="1.1" xmlns="http://www.w3.org/2000/svg" xmlns:xlink="http://www.w3.org/1999/xlink">
    <!-- Generator: Sketch 3.6.1 (26313) - http://www.bohemiancoding.com/sketch -->
    <title>unarchive</title>
    <desc>Created with Sketch.</desc>
    <defs></defs>
    <g id="Page-1" stroke="none" stroke-width="1" fill="none" fill-rule="evenodd">
        <g id="unarchive" fill="#000000">
            <path d="M1,20 C1,8.954305 9.954305,2.02906125e-15 21,0 L181.59,0 C192.635695,6.76353751e-16 201.59,8.954305 201.59,20 L201.59,180.54 C201.59,185.84433 199.482863,190.931408 195.732136,194.682136 C191.981408,198.432863 186.89433,200.54 181.59,200.54 L20.96,200.54 C9.914305,200.54 0.96,191.585695 0.96,180.54 L0.96,20 L1,20 Z M21.05,20 L21.05,20 L21.05,180.54 C21.05,180.45 21.05,180.45 20.96,180.45 L181.55,180.45 C181.46,180.45 181.46,180.45 181.46,180.54 L181.46,20 C181.46,20.09 181.46,20.09 181.55,20.09 L20.96,20.09 C21.04,20.05 21.05,20 21.05,20 L21.05,20 Z" id="Shape"></path>
            <path d="M111.27,110.23 L111.27,145.09 C111.283247,147.89689 109.074429,150.211732 106.27,150.33 L96.27,150.33 C93.4655712,150.211732 91.2567528,147.89689 91.27,145.09 L91.27,110.23 L67.81,110.23 C61.59,110.23 59.39,105.81 62.81,100.8 L95.09,53.8 C98.5,48.8 104.09,48.97 107.52,53.88 L139.8,100.81 C143.21,105.7 141,110.22 134.8,110.22 L111.34,110.22 L111.27,110.23 Z" id="Shape"></path>
            <path d="M21.05,140.35 L51.05,140.35 C53.7388898,140.333914 56.322308,141.39496 58.2236742,143.296326 C60.1250405,145.197692 61.1860855,147.78111 61.17,150.47 L61.17,180.47 L21.07,180.47 L21.07,140.37 L21.05,140.35 Z" id="Shape"></path>
            <path d="M141.35,150.47 C141.333914,147.78111 142.39496,145.197692 144.296326,143.296326 C146.197692,141.39496 148.78111,140.333914 151.47,140.35 L181.47,140.35 L181.47,180.45 L141.37,180.45 L141.37,150.45 L141.35,150.47 Z" id="Shape"></path>
        </g>
    </g>
</svg>